<svg width="101" height="81" fill="none" xmlns="http://www.w3.org/2000/svg"><g id="Слой_x0020_1" stroke="#EF7F1A" stroke-miterlimit="22.926" stroke-linecap="round" stroke-linejoin="round"><g id="_1985229652240"><path id="Vector" fill-rule="evenodd" clip-rule="evenodd" d="M41.746 16.803h-5.882v14.705c7.62 0 13.77 6.15 13.77 13.77 0 7.62-6.15 13.77-13.77 13.77v14.706h5.882v-6.417a20.954 20.954 0 005.615-2.406l4.545 4.679 8.29-8.289-4.546-4.679c.936-1.738 1.738-3.61 2.273-5.481h6.55V39.396h-6.55a22.473 22.473 0 00-2.273-5.481l4.545-4.68-8.289-8.288-4.545 4.545c-1.738-.935-3.61-1.738-5.615-2.272v-6.417 0z" stroke-width="2.139"/><path id="Vector_2" d="M35.195 52.364a6.952 6.952 0 100-13.904 6.952 6.952 0 000 13.904z" stroke-width="1.07"/><path id="Vector_3" d="M30.516 40.332H24.1v-9.225" stroke-width="1.07"/><path id="Vector_4" d="M28.243 45.412h-12.7" stroke-width="1.07"/><path id="Vector_5" d="M30.516 50.492H24.1v9.626" stroke-width="1.07"/><path id="Vector_6" d="M23.965 67.872a3.877 3.877 0 100-7.754 3.877 3.877 0 000 7.754z" stroke-width="1.07"/><path id="Vector_7" d="M23.965 31.107a3.877 3.877 0 100-7.754 3.877 3.877 0 000 7.754z" stroke-width="1.07"/><path id="Vector_8" d="M11.8 48.888a3.877 3.877 0 100-7.754 3.877 3.877 0 000 7.754z" stroke-width="1.07"/></g><path id="Vector_9" d="M72.628 11.722H1.64v67.246h70.99V11.722z" stroke-width="2.139"/><path id="Vector_10" d="M99.366 28.7H72.628v41.712h26.738V28.701z" stroke-width="2.139"/><path id="Vector_11" fill-rule="evenodd" clip-rule="evenodd" d="M8.992 1.428h57.487l6.15 10.294H1.638L8.992 1.428z" stroke-width="2.139"/><path id="Vector_12" fill-rule="evenodd" clip-rule="evenodd" d="M72.628 21.08h22.06L99.5 28.7H72.628v-7.62z" stroke-width="2.139"/><path id="Vector_13" d="M95.088 35.92h-22.46v6.417h22.46V35.92z" stroke-width="1.07"/><path id="Vector_14" d="M95.088 47.284h-22.46V53.7h22.46v-6.417z" stroke-width="1.07"/><path id="Vector_15" d="M95.088 58.648h-22.46v6.417h22.46v-6.417z" stroke-width="1.07"/></g></svg>