<svg width="73" height="70" fill="none" xmlns="http://www.w3.org/2000/svg"><g id="Слой_x0020_1" stroke="#9494A8" stroke-miterlimit="22.926" stroke-linecap="round" stroke-linejoin="round"><path id="Vector" fill-rule="evenodd" clip-rule="evenodd" d="M1.782 46.824H71.46l-7.581 21.613H8.556L1.782 46.824z" stroke-width="2.472"/><path id="Vector_2" d="M18.88 14.243H5.33v29.678h13.55V14.243z" stroke-width="1.124"/><path id="Vector_3" d="M35.492 14.243H20.815v29.678h14.677V14.243z" stroke-width="1.124"/><path id="Vector_4" d="M52.266 14.243H37.589v29.678h14.677V14.243z" stroke-width="1.124"/><path id="Vector_5" d="M68.073 14.243H54.524v29.678h13.549V14.243z" stroke-width="1.124"/><path id="Vector_6" fill-rule="evenodd" clip-rule="evenodd" d="M1.782 11.663H71.46v35.323H47.266v-.162H1.782V11.663z" stroke-width="2.472"/><path id="Vector_7" d="M13.718 51.985l3.064 11.29" stroke-width="1.124"/><path id="Vector_8" d="M24.686 51.663l1.774 11.451" stroke-width="1.124"/><path id="Vector_9" d="M35.976 51.501v11.774" stroke-width="1.124"/><g id="_1985373079440" stroke-width="1.124"><path id="Vector_10" d="M58.395 51.985l-3.226 11.29"/><path id="Vector_11" d="M47.427 51.663l-1.935 11.451"/></g><path id="Vector_12" fill-rule="evenodd" clip-rule="evenodd" d="M7.911 1.501h57.42c1.129 1.936 6.29 9.839 6.29 10.162l-70-.162 6.29-10v0z" stroke-width="2.472"/><path id="Vector_13" d="M13.073 4.243L10.33 8.437" stroke-width="1.124"/><path id="Vector_14" d="M20.492 4.404l-1.29 3.871" stroke-width="1.124"/><path id="Vector_15" d="M28.395 4.404l-.484 4.033" stroke-width="1.124"/><path id="Vector_16" d="M36.621 4.404v4.033" stroke-width="1.124"/><path id="Vector_17" d="M52.75 4.404l1.29 3.871m6.13-4.032l2.741 4.194-2.742-4.194zm-23.549.161v4.033-4.033zm8.226 0l.484 4.033-.484-4.033z" stroke-width="1.124"/><path id="Vector_18" fill-rule="evenodd" clip-rule="evenodd" d="M7.911 1.501h57.42c1.129 1.936 6.29 9.839 6.29 10.162l-70-.162 6.29-10v0z" stroke-width="2.472"/><path id="Vector_19" d="M13.073 4.243L10.33 8.437" stroke-width="1.124"/><path id="Vector_20" d="M20.492 4.404l-1.29 3.871" stroke-width="1.124"/><path id="Vector_21" d="M28.395 4.404l-.484 4.033" stroke-width="1.124"/><path id="Vector_22" d="M36.621 4.404v4.033" stroke-width="1.124"/><path id="Vector_23" d="M52.75 4.404l1.29 3.871m6.13-4.032l2.741 4.194-2.742-4.194zm-23.549.161v4.033-4.033zm8.226 0l.484 4.033-.484-4.033z" stroke-width="1.124"/></g></svg>