<svg width="69" height="71" fill="none" xmlns="http://www.w3.org/2000/svg"><g id="Слой_x0020_1" stroke="#9494A8" stroke-miterlimit="22.926" stroke-linecap="round" stroke-linejoin="round"><path id="Vector" d="M67.268 1.927h-65v67.61h65V1.927z" stroke-width="2.734"/><path id="Vector_2" d="M45.34 42.128H2.268v27.41H45.34v-27.41z" stroke-width="2.734"/><path id="Vector_3" d="M47.167 38.081h-44.9v4.047h44.9V38.08z" stroke-width="2.734"/><path id="Vector_4" fill-rule="evenodd" clip-rule="evenodd" d="M2.268 1.927h65l-4.96 9.528H8.14L2.268 1.927z" stroke-width="1.367"/><path id="Vector_5" d="M8.141 11.455v26.627" stroke-width="1.367"/><path id="Vector_6" d="M62.308 11.455v58.082" stroke-width="1.367"/><path id="Vector_7" d="M45.34 44.869h16.968" stroke-width="1.367"/><path id="Vector_8" d="M21.193 14.457H10.49v23.624h10.703V14.457z" stroke-width="1.367"/><path id="Vector_9" d="M34.245 14.457H23.543v23.624h10.702V14.457z" stroke-width="1.367"/><path id="Vector_10" d="M47.037 14.457H36.334v23.624h10.703V14.457z" stroke-width="1.367"/><path id="Vector_11" d="M59.828 14.457H49.125v30.412h10.703V14.457z" stroke-width="1.367"/><path id="Vector_12" d="M46.906 40.3v4.569" stroke-width="1.367"/><path id="Vector_13" d="M24.717 42.128L2.92 69.538" stroke-width="1.367"/><path id="Vector_14" d="M34.768 42.128L12.97 69.538" stroke-width="1.367"/><path id="Vector_15" d="M45.47 42.128l-21.797 27.41" stroke-width="1.367"/><path id="Vector_16" d="M45.34 55.833L34.507 69.537" stroke-width="1.367"/><path id="Vector_17" d="M15.19 42.128L2.267 58.443" stroke-width="1.367"/></g></svg>