<svg width="83" height="73" fill="none" xmlns="http://www.w3.org/2000/svg" id="product-range-img">
	<g stroke="#8C8C94" stroke-miterlimit="22.926" stroke-linecap="round" stroke-linejoin="round">
		<path id="Vector" fill-rule="evenodd" clip-rule="evenodd" d="M1.85 12.401h59.948v7.028c-.413 0-.62-.206-1.033-.206-2.894 0-5.168 2.48-5.168 5.374v24.807H1.85V12.4v0z" stroke-width="2.27" />
		<path id="Vector_2" fill-rule="evenodd" clip-rule="evenodd" d="M1.85 49.404h53.747v4.547c-1.86 1.447-3.1 3.721-3.1 6.202 0 4.341 3.72 8.062 8.061 8.062.413 0 .827-.207 1.24-.207v3.308H1.85V49.404v0z" stroke-width="2.27" />
		<path id="Vector_3" d="M16.32 14.468H4.744v32.868H16.32V14.468z" stroke-width="1.009" />
		<path id="Vector_4" d="M30.997 14.468H18.181v32.868h12.816V14.468z" stroke-width="1.009" />
		<path id="Vector_5" d="M45.468 14.468H32.65v32.868h12.817V14.468z" stroke-width="1.009" />
		<path id="Vector_6" fill-rule="evenodd" clip-rule="evenodd" d="M47.328 14.468h12.817v4.961c-2.688.207-4.548 2.481-4.548 5.168v22.74h-8.269v-32.87 0z" stroke-width="1.009" />
		<path id="Vector_7" d="M9.085 54.572V65.94" stroke-width="1.009" />
		<path id="Vector_8" d="M15.907 54.572V65.94" stroke-width="1.009" />
		<path id="Vector_9" d="M22.315 54.572V65.94" stroke-width="1.009" />
		<path id="Vector_10" d="M29.137 54.572V65.94" stroke-width="1.009" />
		<path id="Vector_11" d="M35.545 54.572V65.94" stroke-width="1.009" />
		<path id="Vector_12" d="M42.367 54.572V65.94" stroke-width="1.009" />
		<path id="Vector_13" d="M48.775 54.572V65.94" stroke-width="1.009" />
		<path id="Vector_14" fill-rule="evenodd" clip-rule="evenodd" d="M65.933 54.158c1.653 1.447 2.687 3.514 2.687 5.995 0 4.341-3.514 8.062-8.062 8.062-4.341 0-8.062-3.72-8.062-8.062 0-2.48 1.24-4.755 3.1-6.201V24.598c0-2.895 2.275-5.375 5.169-5.375 2.894 0 5.168 2.48 5.168 5.375v29.56z" stroke-width="2.27" />
		<path id="Vector_15" fill-rule="evenodd" clip-rule="evenodd" d="M60.765 24.39c1.033 0 1.86 1.034 1.86 2.068v30.594a3.914 3.914 0 011.86 3.308c0 2.067-1.653 3.927-3.927 3.927-2.067 0-3.928-1.86-3.928-3.927 0-1.654.827-2.894 2.274-3.515V26.458c0-1.034.827-2.067 1.86-2.067v0z" stroke-width="2.27" />
		<path id="Vector_16" fill-rule="evenodd" clip-rule="evenodd" d="M62.625 27.698v29.354a3.914 3.914 0 011.86 3.308c0 2.067-1.653 3.927-3.927 3.927-2.067 0-3.928-1.86-3.928-3.927 0-1.654.827-2.894 2.274-3.514V27.698h3.721z" fill="#9494A8" stroke-width="2.27" />
		<path id="Vector_17" fill-rule="evenodd" clip-rule="evenodd" d="M75.442 37.827v3.928-3.928zm0 10.956v4.135-4.135z" stroke-width="2.27" />
		<path id="Vector_18" fill-rule="evenodd" clip-rule="evenodd" d="M81.85 49.197l-3.514-2.067 3.514 2.067zm-9.509-5.582l-3.514-2.067 3.514 2.067z" stroke-width="2.27" />
		<path id="Vector_19" d="M78.336 43.615l3.514-2.067m-13.023 7.649l3.514-2.067-3.514 2.067z" stroke-width="2.27" />
		<path id="Vector_20" d="M75.442 48.783a3.514 3.514 0 100-7.028 3.514 3.514 0 000 7.028z" stroke-width="2.27" />
		<path id="Vector_21" fill-rule="evenodd" clip-rule="evenodd" d="M7.225 1.858h49.199c.827 2.068 5.374 10.336 5.374 10.543l-59.741-.207L7.225 1.858v0z" stroke-width="2.27" />
		<path id="Vector_22" d="M11.773 4.752L9.292 9.094" stroke-width="1.009" />
		<path id="Vector_23" d="M17.974 4.96l-1.033 3.927" stroke-width="1.009" />
		<path id="Vector_24" d="M24.796 4.96l-.414 3.927" stroke-width="1.009" />
		<path id="Vector_25" d="M31.824 4.752v4.342" stroke-width="1.009" />
		<path id="Vector_26" d="M45.674 4.96l1.034 3.927m5.168-4.135l2.48 4.342-2.48-4.342zm-20.052 0v4.342-4.342zm7.029.207l.413 3.928-.413-3.928z" stroke-width="1.009" />
	</g>
</svg>
