<svg width="83" height="73" fill="none" xmlns="http://www.w3.org/2000/svg"><path fill="#E5E5E5" d="M0 0h83v73H0z"/><g filter="url(#filter0_d_212_2)"><g clip-path="url(#clip0_212_2)"><rect x="-105.75" y="-310" width="1000" height="649" rx="5" fill="#fff"/><path clip-rule="evenodd" d="M1.85 12.401h59.948v7.028c-.413 0-.62-.206-1.033-.206-2.894 0-5.168 2.48-5.168 5.374v24.807H1.85V12.4v0zm0 37.003h53.747v4.547c-1.86 1.447-3.1 3.721-3.1 6.202 0 4.341 3.72 8.062 8.061 8.062.413 0 .827-.207 1.24-.207v3.308H1.85V49.404v0z" stroke="#8C8C94" stroke-width="2.27" stroke-miterlimit="22.926" stroke-linecap="round" stroke-linejoin="round"/><path d="M16.32 14.468H4.744v32.868H16.32V14.468zm14.677 0H18.181v32.868h12.816V14.468zm14.471 0H32.65v32.868h12.817V14.468z" stroke="#8C8C94" stroke-width="1.009" stroke-miterlimit="22.926" stroke-linecap="round" stroke-linejoin="round"/><path clip-rule="evenodd" d="M47.328 14.468h12.817v4.961c-2.688.207-4.548 2.481-4.548 5.168v22.74h-8.269v-32.87 0z" stroke="#8C8C94" stroke-width="1.009" stroke-miterlimit="22.926" stroke-linecap="round" stroke-linejoin="round"/><path d="M9.085 54.572V65.94m6.822-11.368V65.94m6.408-11.368V65.94m6.822-11.368V65.94m6.408-11.368V65.94m6.822-11.368V65.94m6.408-11.368V65.94" stroke="#8C8C94" stroke-width="1.009" stroke-miterlimit="22.926" stroke-linecap="round" stroke-linejoin="round"/><path clip-rule="evenodd" d="M65.933 54.158c1.653 1.447 2.687 3.514 2.687 5.995 0 4.341-3.514 8.062-8.062 8.062-4.341 0-8.062-3.72-8.062-8.062 0-2.48 1.24-4.755 3.1-6.201V24.598c0-2.895 2.275-5.375 5.169-5.375 2.894 0 5.168 2.48 5.168 5.375v29.56z" stroke="#8C8C94" stroke-width="2.27" stroke-miterlimit="22.926" stroke-linecap="round" stroke-linejoin="round"/><path clip-rule="evenodd" d="M60.765 24.39c1.033 0 1.86 1.034 1.86 2.068v30.594a3.914 3.914 0 011.86 3.308c0 2.067-1.653 3.927-3.927 3.927-2.067 0-3.928-1.86-3.928-3.927 0-1.654.827-2.894 2.274-3.515V26.458c0-1.034.827-2.067 1.86-2.067v0z" stroke="#8C8C94" stroke-width="2.27" stroke-miterlimit="22.926" stroke-linecap="round" stroke-linejoin="round"/><path fill-rule="evenodd" clip-rule="evenodd" d="M62.625 27.698v29.354a3.914 3.914 0 011.86 3.308c0 2.067-1.653 3.927-3.927 3.927-2.067 0-3.928-1.86-3.928-3.927 0-1.654.827-2.894 2.274-3.514V27.698h3.721z" fill="#9494A8" stroke="#8C8C94" stroke-width="2.27" stroke-miterlimit="22.926" stroke-linecap="round" stroke-linejoin="round"/><path clip-rule="evenodd" d="M75.442 37.827v3.928-3.928zm0 10.956v4.135-4.135zm6.408.414l-3.514-2.067 3.514 2.067zm-9.509-5.582l-3.514-2.067 3.514 2.067z" stroke="#8C8C94" stroke-width="2.27" stroke-miterlimit="22.926" stroke-linecap="round" stroke-linejoin="round"/><path d="M78.336 43.615l3.514-2.067m-13.023 7.649l3.514-2.067-3.514 2.067zm6.615-.414a3.514 3.514 0 100-7.028 3.514 3.514 0 000 7.028z" stroke="#8C8C94" stroke-width="2.27" stroke-miterlimit="22.926" stroke-linecap="round" stroke-linejoin="round"/><path clip-rule="evenodd" d="M7.225 1.858h49.199c.827 2.068 5.374 10.336 5.374 10.543l-59.741-.207L7.225 1.858v0z" stroke="#8C8C94" stroke-width="2.27" stroke-miterlimit="22.926" stroke-linecap="round" stroke-linejoin="round"/><path d="M11.773 4.752L9.292 9.094m8.682-4.134l-1.033 3.927m7.855-3.927l-.414 3.927m7.442-4.135v4.342m13.85-4.134l1.034 3.927m5.168-4.135l2.48 4.342-2.48-4.342zm-20.052 0v4.342-4.342zm7.029.207l.413 3.928-.413-3.928z" stroke="#8C8C94" stroke-width="1.009" stroke-miterlimit="22.926" stroke-linecap="round" stroke-linejoin="round"/></g></g><defs><clipPath id="clip0_212_2"><rect x="-105.75" y="-310" width="1000" height="649" rx="5" fill="#fff"/></clipPath><filter id="filter0_d_212_2" x="-125.75" y="-326" width="1040" height="689" filterUnits="userSpaceOnUse" color-interpolation-filters="sRGB"><feFlood flood-opacity="0" result="BackgroundImageFix"/><feColorMatrix in="SourceAlpha" values="0 0 0 0 0 0 0 0 0 0 0 0 0 0 0 0 0 0 127 0" result="hardAlpha"/><feOffset dy="4"/><feGaussianBlur stdDeviation="10"/><feComposite in2="hardAlpha" operator="out"/><feColorMatrix values="0 0 0 0 0 0 0 0 0 0 0 0 0 0 0 0 0 0 0.25 0"/><feBlend in2="BackgroundImageFix" result="effect1_dropShadow_212_2"/><feBlend in="SourceGraphic" in2="effect1_dropShadow_212_2" result="shape"/></filter></defs></svg>