<svg width="69" height="77" fill="none" xmlns="http://www.w3.org/2000/svg"><g id="Слой_x0020_1" stroke="#9494A8" stroke-miterlimit="22.926" stroke-linecap="round" stroke-linejoin="round"><path id="Vector" d="M17.997 15.792H5.462v32.345h12.535V15.792z" stroke-width="1.387"/><path id="Vector_2" d="M33.628 15.792H19.855v32.345h13.773V15.792z" stroke-width="1.387"/><path id="Vector_3" d="M49.26 15.792H35.485v32.345h13.773V15.792z" stroke-width="1.387"/><path id="Vector_4" d="M63.807 15.792H51.27v32.345h12.536V15.792z" stroke-width="1.387"/><path id="Vector_5" fill-rule="evenodd" clip-rule="evenodd" d="M2.057 13.006h65v7.274h-.155v31.262h-22.44v-.155H2.057V13.006z" stroke-width="2.773"/><path id="Vector_6" d="M8.866 58.351v11.762" stroke-width="1.387"/><path id="Vector_7" d="M16.14 58.351v11.762" stroke-width="1.387"/><path id="Vector_8" d="M22.795 58.351v11.762" stroke-width="1.387"/><path id="Vector_9" d="M29.914 58.351v11.762" stroke-width="1.387"/><path id="Vector_10" d="M36.724 58.351v11.762" stroke-width="1.387"/><path id="Vector_11" d="M43.843 58.351v11.762" stroke-width="1.387"/><path id="Vector_12" d="M50.652 58.351v11.762" stroke-width="1.387"/><path id="Vector_13" d="M57.926 58.351v11.762" stroke-width="1.387"/><path id="Vector_14" fill-rule="evenodd" clip-rule="evenodd" d="M7.783 1.553h53.393l5.88 11.608v2.476h-.154V75.22h-22.44v-.155H2.057V12.696L7.783 1.553z" stroke-width="2.773"/><path id="Vector_15" fill-rule="evenodd" clip-rule="evenodd" d="M10.26 3.565h10.059l-1.703 7.12H6.545l3.714-7.12v0zm11.606 0h11.762v7.12h-13.31l1.548-7.12z" stroke-width="1.387"/><path id="Vector_16" fill-rule="evenodd" clip-rule="evenodd" d="M58.854 3.565H48.64l1.703 7.12h12.226l-3.715-7.12v0zm-11.761 0H35.33v7.12h13.31l-1.548-7.12z" stroke-width="1.387"/></g></svg>