<svg width="83" height="84" fill="none" xmlns="http://www.w3.org/2000/svg"><g id="скорость" stroke="#EF7F1A" stroke-miterlimit="22.926" stroke-linecap="round" stroke-linejoin="round"><path id="Vector" fill-rule="evenodd" clip-rule="evenodd" d="M41.477 7.804c18.95 0 34.3 15.397 34.3 34.347 0 7.288-2.277 14.075-6.194 19.632H13.372C9.454 56.226 7.177 49.44 7.177 42.151c0-18.95 15.35-34.347 34.3-34.347v0z" stroke-width=".687"/><path id="Vector_2" d="M23.029 61.51c-5.284-5.056-8.29-12.071-8.29-19.36 0-14.804 11.98-26.784 26.738-26.784 4.464 0 8.837 1.139 12.71 3.234" stroke-width="1.373"/><path id="Vector_3" d="M41.477 47.48a5.33 5.33 0 100-10.659 5.33 5.33 0 000 10.66z" stroke-width="1.373"/><path id="Vector_4" d="M45.395 38.46l15.214-15.532" stroke-width="1.373"/><path id="Vector_5" d="M61.429 45.931l6.696 1.185m-7.06-10.432l6.514-1.913-6.514 1.913zm-3.326 17.629l5.512 4.009-5.512-4.009z" stroke-width="1.373"/><path id="Vector_6" fill-rule="evenodd" clip-rule="evenodd" d="M41.477 1.518c22.457 0 40.633 18.175 40.633 40.633a40.206 40.206 0 01-6.104 21.363c.364-.546.683-1.138 1.002-1.73H5.947c.319.592.683 1.184 1.047 1.73A40.203 40.203 0 01.89 42.151c0-22.458 18.176-40.633 40.587-40.633v0zM76.006 63.56a9337.335 9337.335 0 010 0zm-1.14 1.686c-.364.5-.728 1.047-1.138 1.548.41-.5.774-1.047 1.139-1.548zm-1.183 1.594a34.145 34.145 0 010 0zm-1.23 1.548c-.41.502-.82.957-1.23 1.413.41-.456.82-.911 1.23-1.413zm-1.322 1.504l-.455.455.456-.455zm-.455.455c-.273.274-.547.592-.865.866.318-.274.592-.592.865-.866zm-.957.957l-.41.41.41-.41zm-.546.5c-.228.274-.501.502-.775.73.274-.228.547-.456.775-.73zm-.911.866c-.137.137-.273.228-.41.365.136-.137.273-.228.41-.365zm-.592.501c-.274.228-.502.41-.775.638.273-.227.501-.41.775-.638zm-.957.775c-.137.091-.273.228-.41.319.137-.091.273-.228.41-.32zm-.638.5c-.182.138-.41.32-.638.502.228-.182.456-.364.638-.501zm-.91.684l-.41.273.41-.273zm-.684.501l-.41.274.41-.274zm-1.002.638c-.091.091-.228.137-.365.228.137-.091.274-.137.365-.228zm-.683.456a.992.992 0 000 0zm-1.003.592c-.09.045-.227.09-.319.182.092-.091.228-.137.32-.182zm-.728.41c-.137.045-.228.136-.365.182.137-.046.228-.137.365-.182zm-1.003.546a2.224 2.224 0 000 0zm-.774.365a.735.735 0 000 0zm-.957.455c-.09.046-.227.091-.318.137.09-.046.227-.091.318-.137zm-.865.365c-.091.045-.228.09-.319.136.091-.045.228-.09.319-.136zm-1.868.774c-.09.046-.227.046-.319.091.092-.045.228-.045.32-.091zm-.91.319c-.092 0-.137.045-.228.045.09 0 .136-.045.227-.045zm-1.914.592c-.091.046-.136.046-.228.091.092-.045.137-.045.228-.09zm-1.048.273c-.09.046-.182.046-.273.091.091-.045.182-.045.273-.09zm-.91.228c-.092.046-.137.046-.228.046.09 0 .136 0 .227-.046zm-1.048.273c-.091 0-.182 0-.274.046.092-.045.183-.045.274-.045zm-2.05.365h-.182.182zm-.911.091c-.091.045-.137.045-.228.045.091 0 .137 0 .228-.045zm-10.386.045c-.091 0-.182 0-.228-.045.046.045.137.045.228.045zm-.957-.136h-.227.227zm-1.093-.182c-.091 0-.137 0-.228-.046.091.046.137.046.228.046zm-.91-.137c-.092-.045-.137-.045-.229-.045.092 0 .137 0 .228.045zm-1.094-.273c-.046 0-.137 0-.182-.046.045.046.136.046.182.046zm-1.959-.456c-.045-.045-.137-.045-.182-.09.046.045.137.045.182.09zm-.82-.273c-.09-.046-.182-.046-.273-.091.091.045.182.045.273.09zm-1.093-.365c-.046 0-.137-.045-.182-.045.045 0 .136.045.182.045zm-.82-.273c-.091-.045-.182-.045-.273-.091.09.046.182.046.273.091zm-1.822-.729a2.207 2.207 0 010 0zm-.866-.364c-.136-.046-.227-.091-.364-.137.137.046.228.091.364.137zm-.956-.41c-.091-.091-.228-.137-.319-.182.091.045.228.09.319.182zm-.774-.41a2.219 2.219 0 010 0zm-1.003-.501c-.09-.046-.227-.137-.319-.182.092.045.228.136.32.182zm-.729-.41a1.365 1.365 0 000 0zm-.956-.547a4.208 4.208 0 000 0zm-.729-.455c-.091-.091-.228-.137-.364-.228.136.091.273.137.364.228zm-.911-.592l-.41-.274.41.274zm-.683-.502c-.137-.09-.274-.182-.41-.273l.41.273zm-.683-.455c-.228-.182-.456-.364-.684-.501.228.137.456.319.683.501zm-.912-.683c-.136-.091-.273-.228-.41-.32.137.092.274.229.41.32zm-.546-.456c-.274-.227-.547-.41-.775-.638.228.228.502.41.775.638zm-.957-.774c-.136-.137-.273-.228-.41-.365.137.137.274.228.41.365zm-.546-.501a11.473 11.473 0 010 0zm-.911-.82a4.165 4.165 0 000 0zm-.547-.501c-.273-.274-.547-.592-.866-.866.32.274.593.592.866.866zm-.866-.866c-.136-.136-.273-.319-.41-.455.137.136.274.319.41.455zm-.5-.546a39.027 39.027 0 010 0zm-1.322-1.458c-.41-.501-.774-1.002-1.184-1.503.41.5.774 1.002 1.184 1.503zm-1.23-1.549c-.41-.5-.774-1.047-1.138-1.548.364.5.728 1.047 1.138 1.548zM8.088 65.2c-.41-.547-.73-1.093-1.094-1.64.365.547.684 1.093 1.094 1.64z" stroke-width="1.373"/><path id="Vector_7" fill-rule="evenodd" clip-rule="evenodd" d="M77.008 61.783c-6.924 12.527-20.225 20.954-35.53 20.954-15.26 0-28.607-8.427-35.531-20.953h71.06v0z" stroke-width="1.373"/><path id="Vector_8" fill-rule="evenodd" clip-rule="evenodd" d="M73.272 67.432c-7.47 9.338-18.904 15.305-31.795 15.305-12.845 0-24.324-5.967-31.75-15.305h63.545z" stroke-width=".687"/></g></svg>