<svg width="90" height="83" fill="none" xmlns="http://www.w3.org/2000/svg"><g id="лояльность"><path id="Vector" fill-rule="evenodd" clip-rule="evenodd" d="M69.595 19.466h11.57c4.282 0 7.835 3.507 7.835 7.79v35.62c0 4.283-3.553 7.836-7.835 7.836h-8.564s1.276 7.653-6.924 10.841c3.736-6.24-4.783-10.841-4.783-10.841H28.508c-4.327 0-7.835-3.553-7.835-7.835v-2.46c.957.911 2.232 1.731 3.872 2.414-3.735-6.24 4.828-10.887 4.828-10.887H61.76c4.282 0 7.835-3.507 7.835-7.835V19.466v0z" stroke="#EF7F1A" stroke-width="1.373" stroke-miterlimit="22.926" stroke-linecap="round" stroke-linejoin="round"/><path id="Vector_2" fill-rule="evenodd" clip-rule="evenodd" d="M61.76.698H9.102c-4.328 0-7.835 3.554-7.835 7.835V44.11a7.835 7.835 0 007.835 7.835h8.518s-1.23 7.653 6.924 10.887c-3.735-6.24 4.828-10.887 4.828-10.887H61.76c4.282 0 7.835-3.507 7.835-7.835V8.533c0-4.281-3.553-7.835-7.835-7.835v0z" stroke="#EF7F1A" stroke-width="1.373" stroke-miterlimit="22.926" stroke-linecap="round" stroke-linejoin="round"/><path id="Vector_3" d="M54.29 33.132h-3.462c-.68 0-1.23.55-1.23 1.23v9.2c0 .68.55 1.23 1.23 1.23h3.461c.68 0 1.23-.55 1.23-1.23v-9.2c0-.68-.55-1.23-1.23-1.23z" stroke="#EF7F1A" stroke-width="1.373" stroke-miterlimit="22.926"/><path id="Vector_4" d="M49.598 34.316c-1.367-1.048-2.78-2.141-3.599-3.007-.866-.91-1.184-1.64-1.458-2.368-.273-.775-.546-1.55-.683-2.232-.137-.73-.182-1.367-.228-1.822-.09-.41-.227-.593-.546-.684-.274-.09-.684-.045-1.048 0-.364.091-.683.183-.911.593-.228.364-.41 1.002-.501 1.867-.091.866-.046 1.868.045 2.87.092.956.228 1.867.502 2.414.227.592.5.866.592 1.048.045.137-.137.137-1.412.137-1.276 0-3.6 0-4.829.045-1.275.046-1.412.137-1.64.364-.182.228-.455.593-.546.957-.137.364-.092.683.09 1.048.183.364.593.729.73.91.136.228.09.228 0 .365a1.194 1.194 0 00-.274.592c-.045.274 0 .638.137.957a3.1 3.1 0 00.683.82c.182.182.319.273.364.319 0 .045-.045.09-.182.319a2.209 2.209 0 00-.227.91c0 .41.182.82.455 1.14.319.318.774.546.957.683.227.136.136.136.045.273-.045.091-.182.273-.136.592.045.273.227.683.5 1.002.274.32.638.547 2.233.638 1.594.091 4.373.046 6.377-.319 2.05-.319 3.28-.91 4.51-1.503" stroke="#EF7F1A" stroke-width="1.373" stroke-miterlimit="22.926"/><path id="Vector_5" fill-rule="evenodd" clip-rule="evenodd" d="M11.197 37.55l1.276-.957.592-1.64 1.32.912 1.777.09-.455 1.55.455 1.685-1.64.045-1.457.912-.501-1.504-1.367-1.093z" stroke="#EF7F1A" stroke-width=".687" stroke-miterlimit="22.926" stroke-linecap="round" stroke-linejoin="round"/><path id="Vector_6" fill-rule="evenodd" clip-rule="evenodd" d="M11.197 27.3l1.276-.956.592-1.64 1.32.911 1.777.091-.455 1.55.455 1.685h-1.64l-1.457.956-.501-1.503-1.367-1.093z" stroke="#EF7F1A" stroke-width=".687" stroke-miterlimit="22.926" stroke-linecap="round" stroke-linejoin="round"/><path id="Vector_7" fill-rule="evenodd" clip-rule="evenodd" d="M11.197 16.87l1.276-1.003.592-1.64 1.32.912 1.777.09-.455 1.55.455 1.685-1.64.045-1.457.957-.501-1.503-1.367-1.094z" stroke="#EF7F1A" stroke-width=".687" stroke-miterlimit="22.926" stroke-linecap="round" stroke-linejoin="round"/><path id="Vector_8" fill-rule="evenodd" clip-rule="evenodd" d="M19.305 32.813l1.276-.957.638-1.64 1.32.911 1.732.091-.456 1.55.456 1.684-1.595.046-1.457.957-.547-1.504-1.367-1.138z" stroke="#EF7F1A" stroke-width=".687" stroke-miterlimit="22.926" stroke-linecap="round" stroke-linejoin="round"/><path id="Vector_9" fill-rule="evenodd" clip-rule="evenodd" d="M19.305 22.381l1.276-.956.638-1.64 1.32.91 1.732.092-.456 1.549.456 1.685h-1.595l-1.457.957-.547-1.504-1.367-1.093z" stroke="#EF7F1A" stroke-width=".687" stroke-miterlimit="22.926" stroke-linecap="round" stroke-linejoin="round"/><path id="Vector_10" d="M32.014 62.74h23.369" stroke="#EF7F1A" stroke-width=".687" stroke-miterlimit="22.926" stroke-linecap="round" stroke-linejoin="round"/><path id="Vector_11" d="M64.949 62.74h15.943" stroke="#EF7F1A" stroke-width=".687" stroke-miterlimit="22.926" stroke-linecap="round" stroke-linejoin="round"/><path id="Vector_12" d="M31.468 15.685l2.05-.228c.045.41.182.73.41.911.227.228.5.32.82.32.455 0 .82-.229 1.138-.593.32-.41.502-1.275.593-2.55-.547.637-1.23.91-2.05.91-.866 0-1.595-.319-2.232-1.002-.638-.683-.957-1.549-.957-2.642 0-1.139.319-2.05 1.002-2.733.684-.683 1.504-1.048 2.551-1.048 1.139 0 2.05.456 2.779 1.321.729.866 1.093 2.323 1.093 4.328 0 2.05-.364 3.507-1.139 4.418-.729.911-1.73 1.367-2.915 1.367-.865 0-1.594-.228-2.095-.683-.547-.502-.911-1.185-1.048-2.096zm4.828-4.692c0-.683-.182-1.23-.5-1.594-.32-.41-.684-.592-1.094-.592-.41 0-.729.182-.957.5-.273.274-.41.82-.41 1.504 0 .729.137 1.23.41 1.594.274.32.638.501 1.094.501.41 0 .729-.182 1.002-.5.273-.32.455-.775.455-1.413zm3.827 4.692l2.095-.228c.046.41.182.73.364.911.228.228.502.32.866.32.41 0 .774-.229 1.093-.593.32-.41.501-1.275.592-2.55-.546.637-1.23.91-2.004.91-.91 0-1.64-.319-2.277-1.002-.638-.683-.957-1.549-.957-2.642 0-1.139.319-2.05 1.002-2.733a3.507 3.507 0 012.551-1.048c1.139 0 2.095.456 2.824 1.321.684.866 1.048 2.323 1.048 4.328 0 2.05-.364 3.507-1.093 4.418-.775.911-1.731 1.367-2.961 1.367-.866 0-1.549-.228-2.096-.683-.546-.502-.91-1.185-1.047-2.096zm4.828-4.692c0-.683-.182-1.23-.5-1.594-.32-.41-.684-.592-1.094-.592-.364 0-.729.182-.957.5-.273.274-.41.82-.41 1.504 0 .729.137 1.23.41 1.594.32.32.638.501 1.094.501.41 0 .728-.182 1.047-.5.274-.32.41-.775.41-1.413zm3.781-1.139c0-1.002.228-1.73.638-2.232.455-.455 1.047-.728 1.822-.728.774 0 1.366.227 1.822.728.41.456.638 1.23.638 2.232 0 1.003-.228 1.731-.638 2.187-.456.501-1.048.729-1.822.729-.775 0-1.367-.228-1.822-.73-.41-.455-.638-1.183-.638-2.186zm1.685 0c0 .684.046 1.185.228 1.413a.65.65 0 00.547.273c.228 0 .41-.091.5-.273.183-.228.274-.73.274-1.413 0-.728-.09-1.23-.273-1.457-.091-.182-.273-.274-.501-.274a.65.65 0 00-.547.274c-.182.228-.228.729-.228 1.457zm2.37 8.838h-1.55L57.16 6.894h1.549l-5.922 11.798zm3.461-2.916c0-1.002.228-1.776.683-2.232.41-.5 1.003-.729 1.777-.729s1.367.228 1.822.73c.41.455.638 1.229.638 2.231 0 1.002-.228 1.731-.638 2.232-.456.456-1.048.684-1.776.684-.82 0-1.413-.228-1.823-.684-.455-.5-.683-1.23-.683-2.232zm1.686 0c0 .729.09 1.184.227 1.458a.65.65 0 00.547.273c.228 0 .41-.091.501-.273.182-.274.273-.729.273-1.458s-.09-1.23-.227-1.457c-.137-.228-.32-.32-.547-.32-.228 0-.41.092-.547.32-.136.227-.227.728-.227 1.457z" fill="#EF7F1A"/><path id="Vector_13" d="M32.197 56.682h43.775" stroke="#EF7F1A" stroke-width=".687" stroke-miterlimit="22.926" stroke-linecap="round" stroke-linejoin="round"/><path id="Vector_14" d="M64.402 51.033h15.943" stroke="#EF7F1A" stroke-width=".687" stroke-miterlimit="22.926" stroke-linecap="round" stroke-linejoin="round"/><path id="Vector_15" d="M69.185 45.795h8.2" stroke="#EF7F1A" stroke-width=".687" stroke-miterlimit="22.926" stroke-linecap="round" stroke-linejoin="round"/><path id="Vector_16" d="M69.55 39.418h12.48" stroke="#EF7F1A" stroke-width=".687" stroke-miterlimit="22.926" stroke-linecap="round" stroke-linejoin="round"/><path id="Vector_17" d="M69.55 32.995h7.424" stroke="#EF7F1A" stroke-width=".687" stroke-miterlimit="22.926" stroke-linecap="round" stroke-linejoin="round"/></g></svg>