<svg width="71" height="80" fill="none" xmlns="http://www.w3.org/2000/svg"><g id="Слой_x0020_1" stroke="#EF7F1A" stroke-miterlimit="22.926" stroke-linecap="round" stroke-linejoin="round"><path id="Vector" d="M18.46 15.765H5.037v34.079H18.46V15.765z" stroke-width="1.033"/><path id="Vector_2" d="M34.467 15.765H20.01v34.079h14.457V15.765z" stroke-width="1.033"/><path id="Vector_3" d="M50.99 15.765H36.533v34.079H50.99V15.765z" stroke-width="1.033"/><path id="Vector_4" d="M66.48 15.765H53.056v34.079H66.48V15.765z" stroke-width="1.033"/><path id="Vector_5" fill-rule="evenodd" clip-rule="evenodd" d="M1.422 12.667h68.156v7.745h-.516v33.046H45.827v-.516H1.422V12.667z" stroke-width="2.065"/><path id="Vector_6" d="M8.65 60.17v12.393" stroke-width="1.033"/><path id="Vector_7" d="M15.88 60.17v12.393" stroke-width="1.033"/><path id="Vector_8" d="M23.108 60.17v12.393" stroke-width="1.033"/><path id="Vector_9" d="M30.337 60.17v12.393" stroke-width="1.033"/><path id="Vector_10" d="M37.565 60.17v12.393" stroke-width="1.033"/><path id="Vector_11" d="M45.31 60.17v12.393" stroke-width="1.033"/><path id="Vector_12" d="M52.023 60.17v12.393" stroke-width="1.033"/><path id="Vector_13" d="M59.768 60.17v12.393" stroke-width="1.033"/><path id="Vector_14" fill-rule="evenodd" clip-rule="evenodd" d="M69.062 12.667l.516.517v2.581h-.516v62.477H45.827v-.516H1.422V12.667h67.64z" stroke-width="2.065"/><path id="Vector_15" fill-rule="evenodd" clip-rule="evenodd" d="M7.618 1.308h55.764l5.68 11.36H1.422l6.196-11.36v0z" stroke-width="2.065"/><path id="Vector_16" d="M12.265 4.406L9.683 9.053" stroke-width="1.033"/><path id="Vector_17" d="M19.494 4.406L18.46 9.053" stroke-width="1.033"/><path id="Vector_18" d="M27.239 4.406l-.517 4.647" stroke-width="1.033"/><path id="Vector_19" d="M35.5 4.406v4.647" stroke-width="1.033"/><path id="Vector_20" d="M50.99 4.406l1.033 4.647m6.196-4.647l2.582 4.647-2.582-4.647zm-22.719 0v4.647-4.647zm7.745 0l.516 4.647-.516-4.647z" stroke-width="1.033"/></g></svg>