<svg width="71" height="71" fill="none" xmlns="http://www.w3.org/2000/svg"><g id="Слой_x0020_1" stroke="#EF7F1A" stroke-miterlimit="22.926" stroke-linecap="round" stroke-linejoin="round"><path id="Vector" fill-rule="evenodd" clip-rule="evenodd" d="M5.49 22.253L26.536 6.698 66.34 22.253v47.582H5.49V22.253z" stroke-width="1.83"/><path id="Vector_2" fill-rule="evenodd" clip-rule="evenodd" d="M1.83 19.966L26.536 1.665 70 18.593v5.033L26.536 6.698 1.83 24.998v-5.032z" stroke-width="1.83"/><path id="Vector_3" fill-rule="evenodd" clip-rule="evenodd" d="M36.144 16.763V37.81H13.726V22.253l13.268-9.607 9.15 4.117z" stroke-width="1.83"/><path id="Vector_4" fill-rule="evenodd" clip-rule="evenodd" d="M58.562 37.809H41.634v-20.13l16.928 6.405v13.725z" stroke-width="1.83"/><path id="Vector_5" d="M36.144 41.469H13.726v20.13h22.418V41.47z" stroke-width="1.83"/><path id="Vector_6" d="M58.562 41.469H41.176v20.13h17.386V41.47z" stroke-width="1.83"/><path id="Vector_7" d="M25.163 41.469v20.13" stroke-width=".915"/><path id="Vector_8" d="M25.163 14.018v23.79" stroke-width=".915"/><path id="Vector_9" d="M49.87 20.88v16.93" stroke-width=".915"/><path id="Vector_10" d="M49.87 41.469v20.13" stroke-width=".915"/><path id="Vector_11" d="M13.726 26.828h22.418" stroke-width=".915"/><path id="Vector_12" d="M41.634 26.828h16.928" stroke-width=".915"/><path id="Vector_13" d="M13.726 51.534h22.418" stroke-width=".915"/><path id="Vector_14" d="M41.634 51.534h16.928" stroke-width=".915"/></g></svg>