<svg width="71" height="77" fill="none" xmlns="http://www.w3.org/2000/svg"><g id="Слой_x0020_1" stroke="#EF7F1A" stroke-miterlimit="22.926" stroke-linecap="round" stroke-linejoin="round"><path id="Vector" fill-rule="evenodd" clip-rule="evenodd" d="M1.422 14.044L40.768 1.691V75.81H1.422V14.044z" stroke-width="1.83"/><path id="Vector_2" fill-rule="evenodd" clip-rule="evenodd" d="M40.31 22.28h29.281v53.529h-29.28v-53.53z" stroke-width="1.83"/><path id="Vector_3" d="M65.474 9.469H40.768v12.81h24.706V9.47z" stroke-width="1.83"/><path id="Vector_4" d="M51.29 2.606V9.47" stroke-width="1.83"/><path id="Vector_5" d="M61.814 12.214h-18.3v6.405h18.3v-6.405z" stroke-width=".915"/><path id="Vector_6" d="M66.389 25.482H40.31v5.033h26.078v-5.033z" stroke-width=".915"/><path id="Vector_7" d="M66.389 33.717H40.31v5.033h26.078v-5.033z" stroke-width=".915"/><path id="Vector_8" d="M66.389 41.953H40.31v5.032h26.078v-5.032z" stroke-width=".915"/><path id="Vector_9" d="M66.389 50.188H40.31v5.032h26.078v-5.032z" stroke-width=".915"/><path id="Vector_10" d="M66.389 58.423H40.31v5.033h26.078v-5.033z" stroke-width=".915"/><path id="Vector_11" d="M66.389 66.658H40.31v5.033h26.078v-5.033z" stroke-width=".915"/><path id="Vector_12" d="M10.572 11.3v64.509" stroke-width=".915"/><path id="Vector_13" d="M20.18 8.096V75.81" stroke-width=".915"/><path id="Vector_14" d="M30.245 4.894v70.915" stroke-width=".915"/><path id="Vector_15" d="M1.422 21.364h39.346" stroke-width=".915"/><path id="Vector_16" d="M1.422 40.123h39.346" stroke-width=".915"/><path id="Vector_17" d="M1.422 57.508h39.346" stroke-width=".915"/></g></svg>